<svg xmlns="http://www.w3.org/2000/svg" viewBox="0 0 1600 900" width="1600" height="900" preserveAspectRatio="xMidYMid slice">
  <rect width="1600" height="900" fill="#2b322a"/>
  <g>
    <polygon points="-25.0,-81.4 -47.8,-42.0 -93.2,-42.0 -116.0,-81.4 -93.3,-120.8 -47.8,-120.8" fill="#383f36" stroke="#272c26" stroke-width="1.2" opacity="0.82"/><polygon points="-25.0,0.0 -47.8,39.4 -93.2,39.4 -116.0,0.0 -93.3,-39.4 -47.8,-39.4" fill="#373e35" stroke="#262b25" stroke-width="1.2" opacity="0.82"/><polygon points="-25.0,81.4 -47.8,120.8 -93.2,120.8 -116.0,81.4 -93.3,42.0 -47.8,42.0" fill="#3c493d" stroke="#2a332b" stroke-width="1.2" opacity="0.82"/><polygon points="-25.0,162.8 -47.8,202.2 -93.2,202.2 -116.0,162.8 -93.3,123.4 -47.8,123.4" fill="#3f4c3f" stroke="#2c352c" stroke-width="1.2" opacity="0.82"/><polygon points="-25.0,244.2 -47.8,283.6 -93.2,283.6 -116.0,244.2 -93.3,204.8 -47.8,204.8" fill="#3f5142" stroke="#2c392e" stroke-width="1.2" opacity="0.82"/><polygon points="-25.0,325.6 -47.8,365.0 -93.2,365.0 -116.0,325.6 -93.3,286.2 -47.8,286.2" fill="#3a4a3d" stroke="#29342b" stroke-width="1.2" opacity="0.82"/><polygon points="-25.0,407.0 -47.8,446.4 -93.2,446.4 -116.0,407.0 -93.3,367.6 -47.8,367.6" fill="#445848" stroke="#303e32" stroke-width="1.2" opacity="0.82"/><polygon points="-25.0,488.4 -47.8,527.8 -93.2,527.8 -116.0,488.4 -93.3,449.0 -47.8,449.0" fill="#394137" stroke="#282e26" stroke-width="1.2" opacity="0.82"/><polygon points="-25.0,569.8 -47.8,609.2 -93.2,609.2 -116.0,569.8 -93.3,530.4 -47.8,530.4" fill="#434b40" stroke="#2f342d" stroke-width="1.2" opacity="0.82"/><polygon points="-25.0,651.3 -47.8,690.7 -93.2,690.7 -116.0,651.3 -93.3,611.8 -47.8,611.8" fill="#3b4339" stroke="#292f28" stroke-width="1.2" opacity="0.82"/><polygon points="-25.0,732.7 -47.8,772.1 -93.2,772.1 -116.0,732.7 -93.3,693.3 -47.8,693.3" fill="#373e35" stroke="#262b25" stroke-width="1.2" opacity="0.82"/><polygon points="-25.0,814.1 -47.8,853.5 -93.2,853.5 -116.0,814.1 -93.3,774.7 -47.8,774.7" fill="#3a4238" stroke="#292e27" stroke-width="1.2" opacity="0.82"/><polygon points="-25.0,895.5 -47.8,934.9 -93.2,934.9 -116.0,895.5 -93.3,856.1 -47.8,856.1" fill="#383f36" stroke="#272c26" stroke-width="1.2" opacity="0.82"/><polygon points="-25.0,976.9 -47.8,1016.3 -93.2,1016.3 -116.0,976.9 -93.3,937.5 -47.8,937.5" fill="#41493f" stroke="#2e332c" stroke-width="1.2" opacity="0.82"/><polygon points="45.5,-40.7 22.8,-1.3 -22.7,-1.3 -45.5,-40.7 -22.8,-80.1 22.8,-80.1" fill="#3e463c" stroke="#2b312a" stroke-width="1.2" opacity="0.82"/><polygon points="45.5,40.7 22.8,80.1 -22.7,80.1 -45.5,40.7 -22.8,1.3 22.8,1.3" fill="#405746" stroke="#2d3d31" stroke-width="1.2" opacity="0.82"/><polygon points="45.5,122.1 22.8,161.5 -22.7,161.5 -45.5,122.1 -22.8,82.7 22.8,82.7" fill="#3d5945" stroke="#2b3e30" stroke-width="1.2" opacity="0.82"/><polygon points="45.5,203.5 22.8,242.9 -22.7,242.9 -45.5,203.5 -22.8,164.1 22.8,164.1" fill="#3d5443" stroke="#2b3b2f" stroke-width="1.2" opacity="0.82"/><polygon points="45.5,284.9 22.8,324.3 -22.7,324.3 -45.5,284.9 -22.8,245.5 22.8,245.5" fill="#44624e" stroke="#304537" stroke-width="1.2" opacity="0.82"/><polygon points="45.5,366.3 22.8,405.7 -22.7,405.7 -45.5,366.3 -22.8,326.9 22.8,326.9" fill="#415345" stroke="#2e3a30" stroke-width="1.2" opacity="0.82"/><polygon points="45.5,447.7 22.8,487.1 -22.7,487.1 -45.5,447.7 -22.8,408.3 22.8,408.3" fill="#3b473b" stroke="#293229" stroke-width="1.2" opacity="0.82"/><polygon points="45.5,529.1 22.8,568.5 -22.7,568.5 -45.5,529.1 -22.8,489.7 22.8,489.7" fill="#404b3f" stroke="#2d342c" stroke-width="1.2" opacity="0.82"/><polygon points="45.5,610.5 22.8,650.0 -22.7,650.0 -45.5,610.5 -22.8,571.1 22.8,571.1" fill="#3e463c" stroke="#2b312a" stroke-width="1.2" opacity="0.82"/><polygon points="45.5,692.0 22.8,731.4 -22.7,731.4 -45.5,692.0 -22.8,652.6 22.8,652.6" fill="#424a3f" stroke="#2e342c" stroke-width="1.2" opacity="0.82"/><polygon points="45.5,773.4 22.8,812.8 -22.7,812.8 -45.5,773.4 -22.8,734.0 22.8,734.0" fill="#3a4239" stroke="#292e28" stroke-width="1.2" opacity="0.82"/><polygon points="45.5,854.8 22.8,894.2 -22.7,894.2 -45.5,854.8 -22.8,815.4 22.8,815.4" fill="#3b4e3f" stroke="#29372c" stroke-width="1.2" opacity="0.82"/><polygon points="45.5,936.2 22.8,975.6 -22.7,975.6 -45.5,936.2 -22.8,896.8 22.8,896.8" fill="#435445" stroke="#2f3b30" stroke-width="1.2" opacity="0.82"/><polygon points="116.0,-81.4 93.2,-42.0 47.8,-42.0 25.0,-81.4 47.7,-120.8 93.2,-120.8" fill="#3e4e40" stroke="#2b372d" stroke-width="1.2" opacity="0.82"/><polygon points="116.0,0.0 93.2,39.4 47.8,39.4 25.0,0.0 47.7,-39.4 93.2,-39.4" fill="#445b49" stroke="#304033" stroke-width="1.2" opacity="0.82"/><polygon points="116.0,81.4 93.2,120.8 47.8,120.8 25.0,81.4 47.7,42.0 93.2,42.0" fill="#497257" stroke="#33503d" stroke-width="1.2" opacity="0.82"/><polygon points="116.0,162.8 93.2,202.2 47.8,202.2 25.0,162.8 47.7,123.4 93.2,123.4" fill="#456d54" stroke="#304c3b" stroke-width="1.2" opacity="0.82"/><polygon points="116.0,244.2 93.2,283.6 47.8,283.6 25.0,244.2 47.7,204.8 93.2,204.8" fill="#476a52" stroke="#324a39" stroke-width="1.2" opacity="0.82"/><polygon points="116.0,325.6 93.2,365.0 47.8,365.0 25.0,325.6 47.7,286.2 93.2,286.2" fill="#415948" stroke="#2e3e32" stroke-width="1.2" opacity="0.82"/><polygon points="116.0,407.0 93.2,446.4 47.8,446.4 25.0,407.0 47.7,367.6 93.2,367.6" fill="#475d4b" stroke="#324134" stroke-width="1.2" opacity="0.82"/><polygon points="116.0,488.4 93.2,527.8 47.8,527.8 25.0,488.4 47.7,449.0 93.2,449.0" fill="#3f473d" stroke="#2c322b" stroke-width="1.2" opacity="0.82"/><polygon points="116.0,569.8 93.2,609.2 47.8,609.2 25.0,569.8 47.7,530.4 93.2,530.4" fill="#3f483d" stroke="#2c322b" stroke-width="1.2" opacity="0.82"/><polygon points="116.0,651.3 93.2,690.7 47.8,690.7 25.0,651.3 47.7,611.8 93.2,611.8" fill="#434e42" stroke="#2f372e" stroke-width="1.2" opacity="0.82"/><polygon points="116.0,732.7 93.2,772.1 47.8,772.1 25.0,732.7 47.7,693.3 93.2,693.3" fill="#3d4d40" stroke="#2b362d" stroke-width="1.2" opacity="0.82"/><polygon points="116.0,814.1 93.2,853.5 47.8,853.5 25.0,814.1 47.7,774.7 93.2,774.7" fill="#425344" stroke="#2e3a30" stroke-width="1.2" opacity="0.82"/><polygon points="116.0,895.5 93.2,934.9 47.8,934.9 25.0,895.5 47.7,856.1 93.2,856.1" fill="#3f4f41" stroke="#2c372e" stroke-width="1.2" opacity="0.82"/><polygon points="116.0,976.9 93.2,1016.3 47.8,1016.3 25.0,976.9 47.7,937.5 93.2,937.5" fill="#3b4f40" stroke="#29372d" stroke-width="1.2" opacity="0.82"/><polygon points="186.5,-40.7 163.8,-1.3 118.2,-1.3 95.5,-40.7 118.2,-80.1 163.8,-80.1" fill="#496a53" stroke="#334a3a" stroke-width="1.2" opacity="0.82"/><polygon points="186.5,40.7 163.8,80.1 118.2,80.1 95.5,40.7 118.2,1.3 163.8,1.3" fill="#42634d" stroke="#2e4536" stroke-width="1.2" opacity="0.82"/><polygon points="186.5,122.1 163.8,161.5 118.2,161.5 95.5,122.1 118.2,82.7 163.8,82.7" fill="#4c755b" stroke="#355240" stroke-width="1.2" opacity="0.82"/><polygon points="186.5,203.5 163.8,242.9 118.2,242.9 95.5,203.5 118.2,164.1 163.8,164.1" fill="#425b49" stroke="#2e4033" stroke-width="1.2" opacity="0.82"/><polygon points="186.5,284.9 163.8,324.3 118.2,324.3 95.5,284.9 118.2,245.5 163.8,245.5" fill="#48624f" stroke="#324537" stroke-width="1.2" opacity="0.82"/><polygon points="186.5,366.3 163.8,405.7 118.2,405.7 95.5,366.3 118.2,326.9 163.8,326.9" fill="#465e4b" stroke="#314234" stroke-width="1.2" opacity="0.82"/><polygon points="186.5,447.7 163.8,487.1 118.2,487.1 95.5,447.7 118.2,408.3 163.8,408.3" fill="#3b4339" stroke="#292f28" stroke-width="1.2" opacity="0.82"/><polygon points="186.5,529.1 163.8,568.5 118.2,568.5 95.5,529.1 118.2,489.7 163.8,489.7" fill="#424a3f" stroke="#2e342c" stroke-width="1.2" opacity="0.82"/><polygon points="186.5,610.5 163.8,650.0 118.2,650.0 95.5,610.5 118.2,571.1 163.8,571.1" fill="#3c4f40" stroke="#2a372d" stroke-width="1.2" opacity="0.82"/><polygon points="186.5,692.0 163.8,731.4 118.2,731.4 95.5,692.0 118.2,652.6 163.8,652.6" fill="#3b473b" stroke="#293229" stroke-width="1.2" opacity="0.82"/><polygon points="186.5,773.4 163.8,812.8 118.2,812.8 95.5,773.4 118.2,734.0 163.8,734.0" fill="#405645" stroke="#2d3c30" stroke-width="1.2" opacity="0.82"/><polygon points="186.5,854.8 163.8,894.2 118.2,894.2 95.5,854.8 118.2,815.4 163.8,815.4" fill="#415f4b" stroke="#2e4234" stroke-width="1.2" opacity="0.82"/><polygon points="186.5,936.2 163.8,975.6 118.2,975.6 95.5,936.2 118.2,896.8 163.8,896.8" fill="#405645" stroke="#2d3c30" stroke-width="1.2" opacity="0.82"/><polygon points="257.0,-81.4 234.2,-42.0 188.8,-42.0 166.0,-81.4 188.7,-120.8 234.2,-120.8" fill="#4a765a" stroke="#34533f" stroke-width="1.2" opacity="0.82"/><polygon points="257.0,0.0 234.2,39.4 188.8,39.4 166.0,0.0 188.7,-39.4 234.2,-39.4" fill="#4f8966" stroke="#376047" stroke-width="1.2" opacity="0.82"/><polygon points="257.0,81.4 234.2,120.8 188.8,120.8 166.0,81.4 188.7,42.0 234.2,42.0" fill="#4a755a" stroke="#34523f" stroke-width="1.2" opacity="0.82"/><polygon points="257.0,162.8 234.2,202.2 188.8,202.2 166.0,162.8 188.7,123.4 234.2,123.4" fill="#40624c" stroke="#2d4535" stroke-width="1.2" opacity="0.82"/><polygon points="257.0,244.2 234.2,283.6 188.8,283.6 166.0,244.2 188.7,204.8 234.2,204.8" fill="#496b54" stroke="#334b3b" stroke-width="1.2" opacity="0.82"/><polygon points="257.0,325.6 234.2,365.0 188.8,365.0 166.0,325.6 188.7,286.2 234.2,286.2" fill="#46614d" stroke="#314436" stroke-width="1.2" opacity="0.82"/><polygon points="257.0,407.0 234.2,446.4 188.8,446.4 166.0,407.0 188.7,367.6 234.2,367.6" fill="#3c493d" stroke="#2a332b" stroke-width="1.2" opacity="0.82"/><polygon points="257.0,488.4 234.2,527.8 188.8,527.8 166.0,488.4 188.7,449.0 234.2,449.0" fill="#3e473c" stroke="#2b322a" stroke-width="1.2" opacity="0.82"/><polygon points="257.0,569.8 234.2,609.2 188.8,609.2 166.0,569.8 188.7,530.4 234.2,530.4" fill="#384338" stroke="#272f27" stroke-width="1.2" opacity="0.82"/><polygon points="257.0,651.3 234.2,690.7 188.8,690.7 166.0,651.3 188.7,611.8 234.2,611.8" fill="#3c5041" stroke="#2a382e" stroke-width="1.2" opacity="0.82"/><polygon points="257.0,732.7 234.2,772.1 188.8,772.1 166.0,732.7 188.7,693.3 234.2,693.3" fill="#3d5845" stroke="#2b3e30" stroke-width="1.2" opacity="0.82"/><polygon points="257.0,814.1 234.2,853.5 188.8,853.5 166.0,814.1 188.7,774.7 234.2,774.7" fill="#3e5645" stroke="#2b3c30" stroke-width="1.2" opacity="0.82"/><polygon points="257.0,895.5 234.2,934.9 188.8,934.9 166.0,895.5 188.7,856.1 234.2,856.1" fill="#415b49" stroke="#2e4033" stroke-width="1.2" opacity="0.82"/><polygon points="257.0,976.9 234.2,1016.3 188.8,1016.3 166.0,976.9 188.7,937.5 234.2,937.5" fill="#465c4a" stroke="#314034" stroke-width="1.2" opacity="0.82"/><polygon points="327.5,-40.7 304.8,-1.3 259.2,-1.3 236.5,-40.7 259.2,-80.1 304.8,-80.1" fill="#46765a" stroke="#31533f" stroke-width="1.2" opacity="0.82"/><polygon points="327.5,40.7 304.8,80.1 259.2,80.1 236.5,40.7 259.2,1.3 304.8,1.3" fill="#446b53" stroke="#304b3a" stroke-width="1.2" opacity="0.82"/><polygon points="327.5,122.1 304.8,161.5 259.2,161.5 236.5,122.1 259.2,82.7 304.8,82.7" fill="#3f5e49" stroke="#2c4233" stroke-width="1.2" opacity="0.82"/><polygon points="327.5,203.5 304.8,242.9 259.2,242.9 236.5,203.5 259.2,164.1 304.8,164.1" fill="#4c7058" stroke="#354e3e" stroke-width="1.2" opacity="0.82"/><polygon points="327.5,284.9 304.8,324.3 259.2,324.3 236.5,284.9 259.2,245.5 304.8,245.5" fill="#405444" stroke="#2d3b30" stroke-width="1.2" opacity="0.82"/><polygon points="327.5,366.3 304.8,405.7 259.2,405.7 236.5,366.3 259.2,326.9 304.8,326.9" fill="#384238" stroke="#272e27" stroke-width="1.2" opacity="0.82"/><polygon points="327.5,447.7 304.8,487.1 259.2,487.1 236.5,447.7 259.2,408.3 304.8,408.3" fill="#3c4e3f" stroke="#2a372c" stroke-width="1.2" opacity="0.82"/><polygon points="327.5,529.1 304.8,568.5 259.2,568.5 236.5,529.1 259.2,489.7 304.8,489.7" fill="#405e49" stroke="#2d4233" stroke-width="1.2" opacity="0.82"/><polygon points="327.5,610.5 304.8,650.0 259.2,650.0 236.5,610.5 259.2,571.1 304.8,571.1" fill="#486450" stroke="#324638" stroke-width="1.2" opacity="0.82"/><polygon points="327.5,692.0 304.8,731.4 259.2,731.4 236.5,692.0 259.2,652.6 304.8,652.6" fill="#41654e" stroke="#2e4737" stroke-width="1.2" opacity="0.82"/><polygon points="327.5,773.4 304.8,812.8 259.2,812.8 236.5,773.4 259.2,734.0 304.8,734.0" fill="#40654d" stroke="#2d4736" stroke-width="1.2" opacity="0.82"/><polygon points="327.5,854.8 304.8,894.2 259.2,894.2 236.5,854.8 259.2,815.4 304.8,815.4" fill="#4e765d" stroke="#375341" stroke-width="1.2" opacity="0.82"/><polygon points="327.5,936.2 304.8,975.6 259.2,975.6 236.5,936.2 259.2,896.8 304.8,896.8" fill="#496f55" stroke="#334e3b" stroke-width="1.2" opacity="0.82"/><polygon points="398.0,-81.4 375.2,-42.0 329.8,-42.0 307.0,-81.4 329.8,-120.8 375.2,-120.8" fill="#49785b" stroke="#335440" stroke-width="1.2" opacity="0.82"/><polygon points="398.0,0.0 375.2,39.4 329.8,39.4 307.0,0.0 329.8,-39.4 375.2,-39.4" fill="#4b765b" stroke="#345340" stroke-width="1.2" opacity="0.82"/><polygon points="398.0,81.4 375.2,120.8 329.8,120.8 307.0,81.4 329.8,42.0 375.2,42.0" fill="#4a7258" stroke="#34503e" stroke-width="1.2" opacity="0.82"/><polygon points="398.0,162.8 375.2,202.2 329.8,202.2 307.0,162.8 329.8,123.4 375.2,123.4" fill="#3f5544" stroke="#2c3b30" stroke-width="1.2" opacity="0.82"/><polygon points="398.0,244.2 375.2,283.6 329.8,283.6 307.0,244.2 329.8,204.8 375.2,204.8" fill="#4b6a54" stroke="#344a3b" stroke-width="1.2" opacity="0.82"/><polygon points="398.0,325.6 375.2,365.0 329.8,365.0 307.0,325.6 329.8,286.2 375.2,286.2" fill="#486752" stroke="#324839" stroke-width="1.2" opacity="0.82"/><polygon points="398.0,407.0 375.2,446.4 329.8,446.4 307.0,407.0 329.8,367.6 375.2,367.6" fill="#486a54" stroke="#324a3b" stroke-width="1.2" opacity="0.82"/><polygon points="398.0,488.4 375.2,527.8 329.8,527.8 307.0,488.4 329.8,449.0 375.2,449.0" fill="#44604c" stroke="#304335" stroke-width="1.2" opacity="0.82"/><polygon points="398.0,569.8 375.2,609.2 329.8,609.2 307.0,569.8 329.8,530.4 375.2,530.4" fill="#3f604a" stroke="#2c4334" stroke-width="1.2" opacity="0.82"/><polygon points="398.0,651.3 375.2,690.7 329.8,690.7 307.0,651.3 329.8,611.8 375.2,611.8" fill="#42644e" stroke="#2e4637" stroke-width="1.2" opacity="0.82"/><polygon points="398.0,732.7 375.2,772.1 329.8,772.1 307.0,732.7 329.8,693.3 375.2,693.3" fill="#4a7358" stroke="#34503e" stroke-width="1.2" opacity="0.82"/><polygon points="398.0,814.1 375.2,853.5 329.8,853.5 307.0,814.1 329.8,774.7 375.2,774.7" fill="#49775a" stroke="#33533f" stroke-width="1.2" opacity="0.82"/><polygon points="398.0,895.5 375.2,934.9 329.8,934.9 307.0,895.5 329.8,856.1 375.2,856.1" fill="#4e785d" stroke="#375441" stroke-width="1.2" opacity="0.82"/><polygon points="398.0,976.9 375.2,1016.3 329.8,1016.3 307.0,976.9 329.8,937.5 375.2,937.5" fill="#425c4a" stroke="#2e4034" stroke-width="1.2" opacity="0.82"/><polygon points="468.5,-40.7 445.8,-1.3 400.2,-1.3 377.5,-40.7 400.2,-80.1 445.8,-80.1" fill="#436a52" stroke="#2f4a39" stroke-width="1.2" opacity="0.82"/><polygon points="468.5,40.7 445.8,80.1 400.2,80.1 377.5,40.7 400.2,1.3 445.8,1.3" fill="#405e4a" stroke="#2d4234" stroke-width="1.2" opacity="0.82"/><polygon points="468.5,122.1 445.8,161.5 400.2,161.5 377.5,122.1 400.2,82.7 445.8,82.7" fill="#4b6e56" stroke="#344d3c" stroke-width="1.2" opacity="0.82"/><polygon points="468.5,203.5 445.8,242.9 400.2,242.9 377.5,203.5 400.2,164.1 445.8,164.1" fill="#44664f" stroke="#304737" stroke-width="1.2" opacity="0.82"/><polygon points="468.5,284.9 445.8,324.3 400.2,324.3 377.5,284.9 400.2,245.5 445.8,245.5" fill="#496b54" stroke="#334b3b" stroke-width="1.2" opacity="0.82"/><polygon points="468.5,366.3 445.8,405.7 400.2,405.7 377.5,366.3 400.2,326.9 445.8,326.9" fill="#45604c" stroke="#304335" stroke-width="1.2" opacity="0.82"/><polygon points="468.5,447.7 445.8,487.1 400.2,487.1 377.5,447.7 400.2,408.3 445.8,408.3" fill="#4e8162" stroke="#375a45" stroke-width="1.2" opacity="0.82"/><polygon points="468.5,529.1 445.8,568.5 400.2,568.5 377.5,529.1 400.2,489.7 445.8,489.7" fill="#4a7d5d" stroke="#345841" stroke-width="1.2" opacity="0.82"/><polygon points="468.5,610.5 445.8,650.0 400.2,650.0 377.5,610.5 400.2,571.1 445.8,571.1" fill="#4c7a5d" stroke="#355541" stroke-width="1.2" opacity="0.82"/><polygon points="468.5,692.0 445.8,731.4 400.2,731.4 377.5,692.0 400.2,652.6 445.8,652.6" fill="#4d7b5f" stroke="#365642" stroke-width="1.2" opacity="0.82"/><polygon points="468.5,773.4 445.8,812.8 400.2,812.8 377.5,773.4 400.2,734.0 445.8,734.0" fill="#48775b" stroke="#325340" stroke-width="1.2" opacity="0.82"/><polygon points="468.5,854.8 445.8,894.2 400.2,894.2 377.5,854.8 400.2,815.4 445.8,815.4" fill="#4a6953" stroke="#344a3a" stroke-width="1.2" opacity="0.82"/><polygon points="468.5,936.2 445.8,975.6 400.2,975.6 377.5,936.2 400.2,896.8 445.8,896.8" fill="#3d5443" stroke="#2b3b2f" stroke-width="1.2" opacity="0.82"/><polygon points="539.0,-81.4 516.2,-42.0 470.8,-42.0 448.0,-81.4 470.8,-120.8 516.2,-120.8" fill="#42684f" stroke="#2e4937" stroke-width="1.2" opacity="0.82"/><polygon points="539.0,0.0 516.2,39.4 470.8,39.4 448.0,0.0 470.8,-39.4 516.2,-39.4" fill="#4e7e60" stroke="#375843" stroke-width="1.2" opacity="0.82"/><polygon points="539.0,81.4 516.2,120.8 470.8,120.8 448.0,81.4 470.8,42.0 516.2,42.0" fill="#47644f" stroke="#324637" stroke-width="1.2" opacity="0.82"/><polygon points="539.0,162.8 516.2,202.2 470.8,202.2 448.0,162.8 470.8,123.4 516.2,123.4" fill="#497359" stroke="#33503e" stroke-width="1.2" opacity="0.82"/><polygon points="539.0,244.2 516.2,283.6 470.8,283.6 448.0,244.2 470.8,204.8 516.2,204.8" fill="#456550" stroke="#304738" stroke-width="1.2" opacity="0.82"/><polygon points="539.0,325.6 516.2,365.0 470.8,365.0 448.0,325.6 470.8,286.2 516.2,286.2" fill="#3e5c48" stroke="#2b4032" stroke-width="1.2" opacity="0.82"/><polygon points="539.0,407.0 516.2,446.4 470.8,446.4 448.0,407.0 470.8,367.6 516.2,367.6" fill="#4f8866" stroke="#375f47" stroke-width="1.2" opacity="0.82"/><polygon points="539.0,488.4 516.2,527.8 470.8,527.8 448.0,488.4 470.8,449.0 516.2,449.0" fill="#528b69" stroke="#39614a" stroke-width="1.2" opacity="0.82"/><polygon points="539.0,569.8 516.2,609.2 470.8,609.2 448.0,569.8 470.8,530.4 516.2,530.4" fill="#518867" stroke="#395f48" stroke-width="1.2" opacity="0.82"/><polygon points="539.0,651.3 516.2,690.7 470.8,690.7 448.0,651.3 470.8,611.8 516.2,611.8" fill="#477a5c" stroke="#325540" stroke-width="1.2" opacity="0.82"/><polygon points="539.0,732.7 516.2,772.1 470.8,772.1 448.0,732.7 470.8,693.3 516.2,693.3" fill="#43654f" stroke="#2f4737" stroke-width="1.2" opacity="0.82"/><polygon points="539.0,814.1 516.2,853.5 470.8,853.5 448.0,814.1 470.8,774.7 516.2,774.7" fill="#445f4b" stroke="#304234" stroke-width="1.2" opacity="0.82"/><polygon points="539.0,895.5 516.2,934.9 470.8,934.9 448.0,895.5 470.8,856.1 516.2,856.1" fill="#3f5041" stroke="#2c382e" stroke-width="1.2" opacity="0.82"/><polygon points="539.0,976.9 516.2,1016.3 470.8,1016.3 448.0,976.9 470.8,937.5 516.2,937.5" fill="#434d41" stroke="#2f362e" stroke-width="1.2" opacity="0.82"/><polygon points="609.5,-40.7 586.8,-1.3 541.2,-1.3 518.5,-40.7 541.2,-80.1 586.8,-80.1" fill="#466a53" stroke="#314a3a" stroke-width="1.2" opacity="0.82"/><polygon points="609.5,40.7 586.8,80.1 541.2,80.1 518.5,40.7 541.2,1.3 586.8,1.3" fill="#4d765b" stroke="#365340" stroke-width="1.2" opacity="0.82"/><polygon points="609.5,122.1 586.8,161.5 541.2,161.5 518.5,122.1 541.2,82.7 586.8,82.7" fill="#4c7359" stroke="#35503e" stroke-width="1.2" opacity="0.82"/><polygon points="609.5,203.5 586.8,242.9 541.2,242.9 518.5,203.5 541.2,164.1 586.8,164.1" fill="#487257" stroke="#32503d" stroke-width="1.2" opacity="0.82"/><polygon points="609.5,284.9 586.8,324.3 541.2,324.3 518.5,284.9 541.2,245.5 586.8,245.5" fill="#426d53" stroke="#2e4c3a" stroke-width="1.2" opacity="0.82"/><polygon points="609.5,366.3 586.8,405.7 541.2,405.7 518.5,366.3 541.2,326.9 586.8,326.9" fill="#477759" stroke="#32533e" stroke-width="1.2" opacity="0.82"/><polygon points="609.5,447.7 586.8,487.1 541.2,487.1 518.5,447.7 541.2,408.3 586.8,408.3" fill="#4f8263" stroke="#375b45" stroke-width="1.2" opacity="0.82"/><polygon points="609.5,529.1 586.8,568.5 541.2,568.5 518.5,529.1 541.2,489.7 586.8,489.7" fill="#4a7c5d" stroke="#345741" stroke-width="1.2" opacity="0.82"/><polygon points="609.5,610.5 586.8,650.0 541.2,650.0 518.5,610.5 541.2,571.1 586.8,571.1" fill="#4d8363" stroke="#365c45" stroke-width="1.2" opacity="0.82"/><polygon points="609.5,692.0 586.8,731.4 541.2,731.4 518.5,692.0 541.2,652.6 586.8,652.6" fill="#476e54" stroke="#324d3b" stroke-width="1.2" opacity="0.82"/><polygon points="609.5,773.4 586.8,812.8 541.2,812.8 518.5,773.4 541.2,734.0 586.8,734.0" fill="#496b55" stroke="#334b3b" stroke-width="1.2" opacity="0.82"/><polygon points="609.5,854.8 586.8,894.2 541.2,894.2 518.5,854.8 541.2,815.4 586.8,815.4" fill="#405244" stroke="#2d3930" stroke-width="1.2" opacity="0.82"/><polygon points="609.5,936.2 586.8,975.6 541.2,975.6 518.5,936.2 541.2,896.8 586.8,896.8" fill="#3d4b3e" stroke="#2b342b" stroke-width="1.2" opacity="0.82"/><polygon points="680.0,-81.4 657.2,-42.0 611.8,-42.0 589.0,-81.4 611.8,-120.8 657.2,-120.8" fill="#4a785c" stroke="#345440" stroke-width="1.2" opacity="0.82"/><polygon points="680.0,0.0 657.2,39.4 611.8,39.4 589.0,0.0 611.8,-39.4 657.2,-39.4" fill="#4c765c" stroke="#355340" stroke-width="1.2" opacity="0.82"/><polygon points="680.0,81.4 657.2,120.8 611.8,120.8 589.0,81.4 611.8,42.0 657.2,42.0" fill="#4a7b5d" stroke="#345641" stroke-width="1.2" opacity="0.82"/><polygon points="680.0,162.8 657.2,202.2 611.8,202.2 589.0,162.8 611.8,123.4 657.2,123.4" fill="#4b7c5e" stroke="#345742" stroke-width="1.2" opacity="0.82"/><polygon points="680.0,244.2 657.2,283.6 611.8,283.6 589.0,244.2 611.8,204.8 657.2,204.8" fill="#4f8866" stroke="#375f47" stroke-width="1.2" opacity="0.82"/><polygon points="680.0,325.6 657.2,365.0 611.8,365.0 589.0,325.6 611.8,286.2 657.2,286.2" fill="#4e8967" stroke="#376048" stroke-width="1.2" opacity="0.82"/><polygon points="680.0,407.0 657.2,446.4 611.8,446.4 589.0,407.0 611.8,367.6 657.2,367.6" fill="#559871" stroke="#3b6a4f" stroke-width="1.2" opacity="0.82"/><polygon points="680.0,488.4 657.2,527.8 611.8,527.8 589.0,488.4 611.8,449.0 657.2,449.0" fill="#559871" stroke="#3b6a4f" stroke-width="1.2" opacity="0.82"/><polygon points="680.0,569.8 657.2,609.2 611.8,609.2 589.0,569.8 611.8,530.4 657.2,530.4" fill="#4a8161" stroke="#345a44" stroke-width="1.2" opacity="0.82"/><polygon points="680.0,651.3 657.2,690.7 611.8,690.7 589.0,651.3 611.8,611.8 657.2,611.8" fill="#4f7e60" stroke="#375843" stroke-width="1.2" opacity="0.82"/><polygon points="680.0,732.7 657.2,772.1 611.8,772.1 589.0,732.7 611.8,693.3 657.2,693.3" fill="#41654e" stroke="#2e4737" stroke-width="1.2" opacity="0.82"/><polygon points="680.0,814.1 657.2,853.5 611.8,853.5 589.0,814.1 611.8,774.7 657.2,774.7" fill="#405444" stroke="#2d3b30" stroke-width="1.2" opacity="0.82"/><polygon points="680.0,895.5 657.2,934.9 611.8,934.9 589.0,895.5 611.8,856.1 657.2,856.1" fill="#3c4d40" stroke="#2a362d" stroke-width="1.2" opacity="0.82"/><polygon points="680.0,976.9 657.2,1016.3 611.8,1016.3 589.0,976.9 611.8,937.5 657.2,937.5" fill="#445b49" stroke="#304033" stroke-width="1.2" opacity="0.82"/><polygon points="750.5,-40.7 727.8,-1.3 682.2,-1.3 659.5,-40.7 682.2,-80.1 727.8,-80.1" fill="#518766" stroke="#395e47" stroke-width="1.2" opacity="0.82"/><polygon points="750.5,40.7 727.8,80.1 682.2,80.1 659.5,40.7 682.2,1.3 727.8,1.3" fill="#4b785c" stroke="#345440" stroke-width="1.2" opacity="0.82"/><polygon points="750.5,122.1 727.8,161.5 682.2,161.5 659.5,122.1 682.2,82.7 727.8,82.7" fill="#477c5d" stroke="#325741" stroke-width="1.2" opacity="0.82"/><polygon points="750.5,203.5 727.8,242.9 682.2,242.9 659.5,203.5 682.2,164.1 727.8,164.1" fill="#59a478" stroke="#3e7354" stroke-width="1.2" opacity="0.92"/><polygon points="750.5,284.9 727.8,324.3 682.2,324.3 659.5,284.9 682.2,245.5 727.8,245.5" fill="#559871" stroke="#3b6a4f" stroke-width="1.2" opacity="0.82"/><polygon points="750.5,366.3 727.8,405.7 682.2,405.7 659.5,366.3 682.2,326.9 727.8,326.9" fill="#4f8d69" stroke="#37634a" stroke-width="1.2" opacity="0.92"/><polygon points="750.5,447.7 727.8,487.1 682.2,487.1 659.5,447.7 682.2,408.3 727.8,408.3" fill="#57a076" stroke="#3d7053" stroke-width="1.2" opacity="0.92"/><polygon points="750.5,529.1 727.8,568.5 682.2,568.5 659.5,529.1 682.2,489.7 727.8,489.7" fill="#49755a" stroke="#33523f" stroke-width="1.2" opacity="0.82"/><polygon points="750.5,610.5 727.8,650.0 682.2,650.0 659.5,610.5 682.2,571.1 727.8,571.1" fill="#466f56" stroke="#314e3c" stroke-width="1.2" opacity="0.82"/><polygon points="750.5,692.0 727.8,731.4 682.2,731.4 659.5,692.0 682.2,652.6 727.8,652.6" fill="#415d4a" stroke="#2e4134" stroke-width="1.2" opacity="0.82"/><polygon points="750.5,773.4 727.8,812.8 682.2,812.8 659.5,773.4 682.2,734.0 727.8,734.0" fill="#3e5d49" stroke="#2b4133" stroke-width="1.2" opacity="0.82"/><polygon points="750.5,854.8 727.8,894.2 682.2,894.2 659.5,854.8 682.2,815.4 727.8,815.4" fill="#44654f" stroke="#304737" stroke-width="1.2" opacity="0.82"/><polygon points="750.5,936.2 727.8,975.6 682.2,975.6 659.5,936.2 682.2,896.8 727.8,896.8" fill="#415f4b" stroke="#2e4234" stroke-width="1.2" opacity="0.82"/><polygon points="821.0,-81.4 798.2,-42.0 752.8,-42.0 730.0,-81.4 752.8,-120.8 798.2,-120.8" fill="#4c8060" stroke="#355a43" stroke-width="1.2" opacity="0.82"/><polygon points="821.0,0.0 798.2,39.4 752.8,39.4 730.0,0.0 752.8,-39.4 798.2,-39.4" fill="#528666" stroke="#395e47" stroke-width="1.2" opacity="0.82"/><polygon points="821.0,81.4 798.2,120.8 752.8,120.8 730.0,81.4 752.8,42.0 798.2,42.0" fill="#58a178" stroke="#3e7154" stroke-width="1.2" opacity="0.92"/><polygon points="821.0,162.8 798.2,202.2 752.8,202.2 730.0,162.8 752.8,123.4 798.2,123.4" fill="#4a8362" stroke="#345c45" stroke-width="1.2" opacity="0.82"/><polygon points="821.0,244.2 798.2,283.6 752.8,283.6 730.0,244.2 752.8,204.8 798.2,204.8" fill="#54956e" stroke="#3b684d" stroke-width="1.2" opacity="0.82"/><polygon points="821.0,325.6 798.2,365.0 752.8,365.0 730.0,325.6 752.8,286.2 798.2,286.2" fill="#488461" stroke="#325c44" stroke-width="1.2" opacity="0.92"/><polygon points="821.0,407.0 798.2,446.4 752.8,446.4 730.0,407.0 752.8,367.6 798.2,367.6" fill="#559770" stroke="#3b6a4e" stroke-width="1.2" opacity="0.82"/><polygon points="821.0,488.4 798.2,527.8 752.8,527.8 730.0,488.4 752.8,449.0 798.2,449.0" fill="#4a8161" stroke="#345a44" stroke-width="1.2" opacity="0.82"/><polygon points="821.0,569.8 798.2,609.2 752.8,609.2 730.0,569.8 752.8,530.4 798.2,530.4" fill="#4d775b" stroke="#365340" stroke-width="1.2" opacity="0.82"/><polygon points="821.0,651.3 798.2,690.7 752.8,690.7 730.0,651.3 752.8,611.8 798.2,611.8" fill="#4a7359" stroke="#34503e" stroke-width="1.2" opacity="0.82"/><polygon points="821.0,732.7 798.2,772.1 752.8,772.1 730.0,732.7 752.8,693.3 798.2,693.3" fill="#3d5745" stroke="#2b3d30" stroke-width="1.2" opacity="0.82"/><polygon points="821.0,814.1 798.2,853.5 752.8,853.5 730.0,814.1 752.8,774.7 798.2,774.7" fill="#487157" stroke="#324f3d" stroke-width="1.2" opacity="0.82"/><polygon points="821.0,895.5 798.2,934.9 752.8,934.9 730.0,895.5 752.8,856.1 798.2,856.1" fill="#4f7b5f" stroke="#375642" stroke-width="1.2" opacity="0.82"/><polygon points="821.0,976.9 798.2,1016.3 752.8,1016.3 730.0,976.9 752.8,937.5 798.2,937.5" fill="#549770" stroke="#3b6a4e" stroke-width="1.2" opacity="0.82"/><polygon points="891.5,-40.7 868.8,-1.3 823.2,-1.3 800.5,-40.7 823.2,-80.1 868.8,-80.1" fill="#528d6a" stroke="#39634a" stroke-width="1.2" opacity="0.82"/><polygon points="891.5,40.7 868.8,80.1 823.2,80.1 800.5,40.7 823.2,1.3 868.8,1.3" fill="#549670" stroke="#3b694e" stroke-width="1.2" opacity="0.82"/><polygon points="891.5,122.1 868.8,161.5 823.2,161.5 800.5,122.1 823.2,82.7 868.8,82.7" fill="#4f956d" stroke="#37684c" stroke-width="1.2" opacity="0.92"/><polygon points="891.5,203.5 868.8,242.9 823.2,242.9 800.5,203.5 823.2,164.1 868.8,164.1" fill="#5bac7e" stroke="#407858" stroke-width="1.2" opacity="0.92"/><polygon points="891.5,284.9 868.8,324.3 823.2,324.3 800.5,284.9 823.2,245.5 868.8,245.5" fill="#498763" stroke="#335e45" stroke-width="1.2" opacity="0.92"/><polygon points="891.5,366.3 868.8,405.7 823.2,405.7 800.5,366.3 823.2,326.9 868.8,326.9" fill="#4a8664" stroke="#345e46" stroke-width="1.2" opacity="0.92"/><polygon points="891.5,447.7 868.8,487.1 823.2,487.1 800.5,447.7 823.2,408.3 868.8,408.3" fill="#447055" stroke="#304e3b" stroke-width="1.2" opacity="0.82"/><polygon points="891.5,529.1 868.8,568.5 823.2,568.5 800.5,529.1 823.2,489.7 868.8,489.7" fill="#42664e" stroke="#2e4737" stroke-width="1.2" opacity="0.82"/><polygon points="891.5,610.5 868.8,650.0 823.2,650.0 800.5,610.5 823.2,571.1 868.8,571.1" fill="#446851" stroke="#304939" stroke-width="1.2" opacity="0.82"/><polygon points="891.5,692.0 868.8,731.4 823.2,731.4 800.5,692.0 823.2,652.6 868.8,652.6" fill="#467358" stroke="#31503e" stroke-width="1.2" opacity="0.82"/><polygon points="891.5,773.4 868.8,812.8 823.2,812.8 800.5,773.4 823.2,734.0 868.8,734.0" fill="#457256" stroke="#30503c" stroke-width="1.2" opacity="0.82"/><polygon points="891.5,854.8 868.8,894.2 823.2,894.2 800.5,854.8 823.2,815.4 868.8,815.4" fill="#457659" stroke="#30533e" stroke-width="1.2" opacity="0.82"/><polygon points="891.5,936.2 868.8,975.6 823.2,975.6 800.5,936.2 823.2,896.8 868.8,896.8" fill="#478361" stroke="#325c44" stroke-width="1.2" opacity="0.92"/><polygon points="962.0,-81.4 939.2,-42.0 893.8,-42.0 871.0,-81.4 893.8,-120.8 939.2,-120.8" fill="#539d73" stroke="#3a6e50" stroke-width="1.2" opacity="0.92"/><polygon points="962.0,0.0 939.2,39.4 893.8,39.4 871.0,0.0 893.8,-39.4 939.2,-39.4" fill="#50966e" stroke="#38694d" stroke-width="1.2" opacity="0.92"/><polygon points="962.0,81.4 939.2,120.8 893.8,120.8 871.0,81.4 893.8,42.0 939.2,42.0" fill="#4f9e72" stroke="#376f50" stroke-width="1.2" opacity="0.92"/><polygon points="962.0,162.8 939.2,202.2 893.8,202.2 871.0,162.8 893.8,123.4 939.2,123.4" fill="#55a678" stroke="#3b7454" stroke-width="1.2" opacity="0.92"/><polygon points="962.0,244.2 939.2,283.6 893.8,283.6 871.0,244.2 893.8,204.8 939.2,204.8" fill="#58a679" stroke="#3e7455" stroke-width="1.2" opacity="0.92"/><polygon points="962.0,325.6 939.2,365.0 893.8,365.0 871.0,325.6 893.8,286.2 939.2,286.2" fill="#4f8e69" stroke="#37634a" stroke-width="1.2" opacity="0.82"/><polygon points="962.0,407.0 939.2,446.4 893.8,446.4 871.0,407.0 893.8,367.6 939.2,367.6" fill="#569771" stroke="#3c6a4f" stroke-width="1.2" opacity="0.82"/><polygon points="962.0,488.4 939.2,527.8 893.8,527.8 871.0,488.4 893.8,449.0 939.2,449.0" fill="#4f8061" stroke="#375a44" stroke-width="1.2" opacity="0.82"/><polygon points="962.0,569.8 939.2,609.2 893.8,609.2 871.0,569.8 893.8,530.4 939.2,530.4" fill="#4d8161" stroke="#365a44" stroke-width="1.2" opacity="0.82"/><polygon points="962.0,651.3 939.2,690.7 893.8,690.7 871.0,651.3 893.8,611.8 939.2,611.8" fill="#47765a" stroke="#32533f" stroke-width="1.2" opacity="0.82"/><polygon points="962.0,732.7 939.2,772.1 893.8,772.1 871.0,732.7 893.8,693.3 939.2,693.3" fill="#457256" stroke="#30503c" stroke-width="1.2" opacity="0.82"/><polygon points="962.0,814.1 939.2,853.5 893.8,853.5 871.0,814.1 893.8,774.7 939.2,774.7" fill="#53946d" stroke="#3a684c" stroke-width="1.2" opacity="0.82"/><polygon points="962.0,895.5 939.2,934.9 893.8,934.9 871.0,895.5 893.8,856.1 939.2,856.1" fill="#4e956d" stroke="#37684c" stroke-width="1.2" opacity="0.92"/><polygon points="962.0,976.9 939.2,1016.3 893.8,1016.3 871.0,976.9 893.8,937.5 939.2,937.5" fill="#5cb684" stroke="#407f5c" stroke-width="1.2" opacity="0.92"/><polygon points="1032.5,-40.7 1009.8,-1.3 964.2,-1.3 941.5,-40.7 964.2,-80.1 1009.8,-80.1" fill="#5ab583" stroke="#3f7f5c" stroke-width="1.2" opacity="0.92"/><polygon points="1032.5,40.7 1009.8,80.1 964.2,80.1 941.5,40.7 964.2,1.3 1009.8,1.3" fill="#4f9a70" stroke="#376c4e" stroke-width="1.2" opacity="0.92"/><polygon points="1032.5,122.1 1009.8,161.5 964.2,161.5 941.5,122.1 964.2,82.7 1009.8,82.7" fill="#539f74" stroke="#3a6f51" stroke-width="1.2" opacity="0.92"/><polygon points="1032.5,203.5 1009.8,242.9 964.2,242.9 941.5,203.5 964.2,164.1 1009.8,164.1" fill="#50936c" stroke="#38674c" stroke-width="1.2" opacity="0.92"/><polygon points="1032.5,284.9 1009.8,324.3 964.2,324.3 941.5,284.9 964.2,245.5 1009.8,245.5" fill="#579972" stroke="#3d6b50" stroke-width="1.2" opacity="0.82"/><polygon points="1032.5,366.3 1009.8,405.7 964.2,405.7 941.5,366.3 964.2,326.9 1009.8,326.9" fill="#51936d" stroke="#39674c" stroke-width="1.2" opacity="0.92"/><polygon points="1032.5,447.7 1009.8,487.1 964.2,487.1 941.5,447.7 964.2,408.3 1009.8,408.3" fill="#518766" stroke="#395e47" stroke-width="1.2" opacity="0.82"/><polygon points="1032.5,529.1 1009.8,568.5 964.2,568.5 941.5,529.1 964.2,489.7 1009.8,489.7" fill="#48775b" stroke="#325340" stroke-width="1.2" opacity="0.82"/><polygon points="1032.5,610.5 1009.8,650.0 964.2,650.0 941.5,610.5 964.2,571.1 1009.8,571.1" fill="#49785c" stroke="#335440" stroke-width="1.2" opacity="0.82"/><polygon points="1032.5,692.0 1009.8,731.4 964.2,731.4 941.5,692.0 964.2,652.6 1009.8,652.6" fill="#51946d" stroke="#39684c" stroke-width="1.2" opacity="0.92"/><polygon points="1032.5,773.4 1009.8,812.8 964.2,812.8 941.5,773.4 964.2,734.0 1009.8,734.0" fill="#539e73" stroke="#3a6f50" stroke-width="1.2" opacity="0.92"/><polygon points="1032.5,854.8 1009.8,894.2 964.2,894.2 941.5,854.8 964.2,815.4 1009.8,815.4" fill="#509f74" stroke="#386f51" stroke-width="1.2" opacity="0.92"/><polygon points="1032.5,936.2 1009.8,975.6 964.2,975.6 941.5,936.2 964.2,896.8 1009.8,896.8" fill="#57b17f" stroke="#3d7c59" stroke-width="1.2" opacity="0.92"/><polygon points="1103.0,-81.4 1080.2,-42.0 1034.8,-42.0 1012.0,-81.4 1034.8,-120.8 1080.2,-120.8" fill="#4b936b" stroke="#34674b" stroke-width="1.2" opacity="0.92"/><polygon points="1103.0,0.0 1080.2,39.4 1034.8,39.4 1012.0,0.0 1034.8,-39.4 1080.2,-39.4" fill="#51a074" stroke="#397051" stroke-width="1.2" opacity="0.92"/><polygon points="1103.0,81.4 1080.2,120.8 1034.8,120.8 1012.0,81.4 1034.8,42.0 1080.2,42.0" fill="#56ac7c" stroke="#3c7857" stroke-width="1.2" opacity="0.92"/><polygon points="1103.0,162.8 1080.2,202.2 1034.8,202.2 1012.0,162.8 1034.8,123.4 1080.2,123.4" fill="#58aa7b" stroke="#3e7756" stroke-width="1.2" opacity="0.92"/><polygon points="1103.0,244.2 1080.2,283.6 1034.8,283.6 1012.0,244.2 1034.8,204.8 1080.2,204.8" fill="#59a579" stroke="#3e7355" stroke-width="1.2" opacity="0.92"/><polygon points="1103.0,325.6 1080.2,365.0 1034.8,365.0 1012.0,325.6 1034.8,286.2 1080.2,286.2" fill="#4b8261" stroke="#345b44" stroke-width="1.2" opacity="0.82"/><polygon points="1103.0,407.0 1080.2,446.4 1034.8,446.4 1012.0,407.0 1034.8,367.6 1080.2,367.6" fill="#4a8664" stroke="#345e46" stroke-width="1.2" opacity="0.92"/><polygon points="1103.0,488.4 1080.2,527.8 1034.8,527.8 1012.0,488.4 1034.8,449.0 1080.2,449.0" fill="#51936d" stroke="#39674c" stroke-width="1.2" opacity="0.92"/><polygon points="1103.0,569.8 1080.2,609.2 1034.8,609.2 1012.0,569.8 1034.8,530.4 1080.2,530.4" fill="#53926d" stroke="#3a664c" stroke-width="1.2" opacity="0.82"/><polygon points="1103.0,651.3 1080.2,690.7 1034.8,690.7 1012.0,651.3 1034.8,611.8 1080.2,611.8" fill="#58af80" stroke="#3e7a5a" stroke-width="1.2" opacity="0.92"/><polygon points="1103.0,732.7 1080.2,772.1 1034.8,772.1 1012.0,732.7 1034.8,693.3 1080.2,693.3" fill="#5fc48d" stroke="#428963" stroke-width="1.2" opacity="0.92"/><polygon points="1103.0,814.1 1080.2,853.5 1034.8,853.5 1012.0,814.1 1034.8,774.7 1080.2,774.7" fill="#59b884" stroke="#3e815c" stroke-width="1.2" opacity="0.92"/><polygon points="1103.0,895.5 1080.2,934.9 1034.8,934.9 1012.0,895.5 1034.8,856.1 1080.2,856.1" fill="#64d599" stroke="#46956b" stroke-width="1.2" opacity="0.92"/><polygon points="1103.0,976.9 1080.2,1016.3 1034.8,1016.3 1012.0,976.9 1034.8,937.5 1080.2,937.5" fill="#66de9d" stroke="#479b6e" stroke-width="1.2" opacity="0.92"/><polygon points="1173.5,-40.7 1150.8,-1.3 1105.2,-1.3 1082.5,-40.7 1105.2,-80.1 1150.8,-80.1" fill="#60c48d" stroke="#438963" stroke-width="1.2" opacity="0.92"/><polygon points="1173.5,40.7 1150.8,80.1 1105.2,80.1 1082.5,40.7 1105.2,1.3 1150.8,1.3" fill="#5bb684" stroke="#407f5c" stroke-width="1.2" opacity="0.92"/><polygon points="1173.5,122.1 1150.8,161.5 1105.2,161.5 1082.5,122.1 1105.2,82.7 1150.8,82.7" fill="#498a66" stroke="#336147" stroke-width="1.2" opacity="0.92"/><polygon points="1173.5,203.5 1150.8,242.9 1105.2,242.9 1082.5,203.5 1105.2,164.1 1150.8,164.1" fill="#4c8966" stroke="#356047" stroke-width="1.2" opacity="0.82"/><polygon points="1173.5,284.9 1150.8,324.3 1105.2,324.3 1082.5,284.9 1105.2,245.5 1150.8,245.5" fill="#528f6b" stroke="#39644b" stroke-width="1.2" opacity="0.82"/><polygon points="1173.5,366.3 1150.8,405.7 1105.2,405.7 1082.5,366.3 1105.2,326.9 1150.8,326.9" fill="#51936d" stroke="#39674c" stroke-width="1.2" opacity="0.92"/><polygon points="1173.5,447.7 1150.8,487.1 1105.2,487.1 1082.5,447.7 1105.2,408.3 1150.8,408.3" fill="#549c73" stroke="#3b6d50" stroke-width="1.2" opacity="0.92"/><polygon points="1173.5,529.1 1150.8,568.5 1105.2,568.5 1082.5,529.1 1105.2,489.7 1150.8,489.7" fill="#4b8e68" stroke="#346349" stroke-width="1.2" opacity="0.92"/><polygon points="1173.5,610.5 1150.8,650.0 1105.2,650.0 1082.5,610.5 1105.2,571.1 1150.8,571.1" fill="#5ec18a" stroke="#428761" stroke-width="1.2" opacity="0.92"/><polygon points="1173.5,692.0 1150.8,731.4 1105.2,731.4 1082.5,692.0 1105.2,652.6 1150.8,652.6" fill="#5cc08a" stroke="#408661" stroke-width="1.2" opacity="0.92"/><polygon points="1173.5,773.4 1150.8,812.8 1105.2,812.8 1082.5,773.4 1105.2,734.0 1150.8,734.0" fill="#56bb85" stroke="#3c835d" stroke-width="1.2" opacity="0.92"/><polygon points="1173.5,854.8 1150.8,894.2 1105.2,894.2 1082.5,854.8 1105.2,815.4 1150.8,815.4" fill="#5cca8e" stroke="#408d63" stroke-width="1.2" opacity="0.92"/><polygon points="1173.5,936.2 1150.8,975.6 1105.2,975.6 1082.5,936.2 1105.2,896.8 1150.8,896.8" fill="#57b984" stroke="#3d825c" stroke-width="1.2" opacity="0.92"/><polygon points="1244.0,-81.4 1221.2,-42.0 1175.8,-42.0 1153.0,-81.4 1175.8,-120.8 1221.2,-120.8" fill="#54b07e" stroke="#3b7b58" stroke-width="1.2" opacity="0.92"/><polygon points="1244.0,0.0 1221.2,39.4 1175.8,39.4 1153.0,0.0 1175.8,-39.4 1221.2,-39.4" fill="#61c58f" stroke="#448a64" stroke-width="1.2" opacity="0.92"/><polygon points="1244.0,81.4 1221.2,120.8 1175.8,120.8 1153.0,81.4 1175.8,42.0 1221.2,42.0" fill="#529e73" stroke="#396f50" stroke-width="1.2" opacity="0.92"/><polygon points="1244.0,162.8 1221.2,202.2 1175.8,202.2 1153.0,162.8 1175.8,123.4 1221.2,123.4" fill="#559f75" stroke="#3b6f52" stroke-width="1.2" opacity="0.92"/><polygon points="1244.0,244.2 1221.2,283.6 1175.8,283.6 1153.0,244.2 1175.8,204.8 1221.2,204.8" fill="#549e74" stroke="#3b6f51" stroke-width="1.2" opacity="0.92"/><polygon points="1244.0,325.6 1221.2,365.0 1175.8,365.0 1153.0,325.6 1175.8,286.2 1221.2,286.2" fill="#4a8c67" stroke="#346248" stroke-width="1.2" opacity="0.92"/><polygon points="1244.0,407.0 1221.2,446.4 1175.8,446.4 1153.0,407.0 1175.8,367.6 1221.2,367.6" fill="#4d8f69" stroke="#36644a" stroke-width="1.2" opacity="0.92"/><polygon points="1244.0,488.4 1221.2,527.8 1175.8,527.8 1153.0,488.4 1175.8,449.0 1221.2,449.0" fill="#54ac7c" stroke="#3b7857" stroke-width="1.2" opacity="0.92"/><polygon points="1244.0,569.8 1221.2,609.2 1175.8,609.2 1153.0,569.8 1175.8,530.4 1221.2,530.4" fill="#51ac7b" stroke="#397856" stroke-width="1.2" opacity="0.92"/><polygon points="1244.0,651.3 1221.2,690.7 1175.8,690.7 1153.0,651.3 1175.8,611.8 1221.2,611.8" fill="#57b883" stroke="#3d815c" stroke-width="1.2" opacity="0.92"/><polygon points="1244.0,732.7 1221.2,772.1 1175.8,772.1 1153.0,732.7 1175.8,693.3 1221.2,693.3" fill="#65df9e" stroke="#479c6f" stroke-width="1.2" opacity="0.92"/><polygon points="1244.0,814.1 1221.2,853.5 1175.8,853.5 1153.0,814.1 1175.8,774.7 1221.2,774.7" fill="#5dcc91" stroke="#418f66" stroke-width="1.2" opacity="0.92"/><polygon points="1244.0,895.5 1221.2,934.9 1175.8,934.9 1153.0,895.5 1175.8,856.1 1221.2,856.1" fill="#5fce92" stroke="#429066" stroke-width="1.2" opacity="0.92"/><polygon points="1244.0,976.9 1221.2,1016.3 1175.8,1016.3 1153.0,976.9 1175.8,937.5 1221.2,937.5" fill="#54b480" stroke="#3b7e5a" stroke-width="1.2" opacity="0.92"/><polygon points="1314.5,-40.7 1291.8,-1.3 1246.2,-1.3 1223.5,-40.7 1246.2,-80.1 1291.8,-80.1" fill="#54ad7c" stroke="#3b7957" stroke-width="1.2" opacity="0.92"/><polygon points="1314.5,40.7 1291.8,80.1 1246.2,80.1 1223.5,40.7 1246.2,1.3 1291.8,1.3" fill="#60c08b" stroke="#438661" stroke-width="1.2" opacity="0.92"/><polygon points="1314.5,122.1 1291.8,161.5 1246.2,161.5 1223.5,122.1 1246.2,82.7 1291.8,82.7" fill="#4f916b" stroke="#37664b" stroke-width="1.2" opacity="0.92"/><polygon points="1314.5,203.5 1291.8,242.9 1246.2,242.9 1223.5,203.5 1246.2,164.1 1291.8,164.1" fill="#5cb483" stroke="#407e5c" stroke-width="1.2" opacity="0.92"/><polygon points="1314.5,284.9 1291.8,324.3 1246.2,324.3 1223.5,284.9 1246.2,245.5 1291.8,245.5" fill="#50986f" stroke="#386a4e" stroke-width="1.2" opacity="0.92"/><polygon points="1314.5,366.3 1291.8,405.7 1246.2,405.7 1223.5,366.3 1246.2,326.9 1291.8,326.9" fill="#5db684" stroke="#417f5c" stroke-width="1.2" opacity="0.92"/><polygon points="1314.5,447.7 1291.8,487.1 1246.2,487.1 1223.5,447.7 1246.2,408.3 1291.8,408.3" fill="#5ab885" stroke="#3f815d" stroke-width="1.2" opacity="0.92"/><polygon points="1314.5,529.1 1291.8,568.5 1246.2,568.5 1223.5,529.1 1246.2,489.7 1291.8,489.7" fill="#5cc48c" stroke="#408962" stroke-width="1.2" opacity="0.92"/><polygon points="1314.5,610.5 1291.8,650.0 1246.2,650.0 1223.5,610.5 1246.2,571.1 1291.8,571.1" fill="#59c58b" stroke="#3e8a61" stroke-width="1.2" opacity="0.92"/><polygon points="1314.5,692.0 1291.8,731.4 1246.2,731.4 1223.5,692.0 1246.2,652.6 1291.8,652.6" fill="#61d798" stroke="#44966a" stroke-width="1.2" opacity="0.92"/><polygon points="1314.5,773.4 1291.8,812.8 1246.2,812.8 1223.5,773.4 1246.2,734.0 1291.8,734.0" fill="#65e09e" stroke="#479d6f" stroke-width="1.2" opacity="0.92"/><polygon points="1314.5,854.8 1291.8,894.2 1246.2,894.2 1223.5,854.8 1246.2,815.4 1291.8,815.4" fill="#66de9d" stroke="#479b6e" stroke-width="1.2" opacity="0.92"/><polygon points="1314.5,936.2 1291.8,975.6 1246.2,975.6 1223.5,936.2 1246.2,896.8 1291.8,896.8" fill="#53b17e" stroke="#3a7c58" stroke-width="1.2" opacity="0.92"/><polygon points="1385.0,-81.4 1362.2,-42.0 1316.8,-42.0 1294.0,-81.4 1316.8,-120.8 1362.2,-120.8" fill="#55a679" stroke="#3b7455" stroke-width="1.2" opacity="0.92"/><polygon points="1385.0,0.0 1362.2,39.4 1316.8,39.4 1294.0,0.0 1316.8,-39.4 1362.2,-39.4" fill="#51a074" stroke="#397051" stroke-width="1.2" opacity="0.92"/><polygon points="1385.0,81.4 1362.2,120.8 1316.8,120.8 1294.0,81.4 1316.8,42.0 1362.2,42.0" fill="#4f956e" stroke="#37684d" stroke-width="1.2" opacity="0.92"/><polygon points="1385.0,162.8 1362.2,202.2 1316.8,202.2 1294.0,162.8 1316.8,123.4 1362.2,123.4" fill="#5aac7e" stroke="#3f7858" stroke-width="1.2" opacity="0.92"/><polygon points="1385.0,244.2 1362.2,283.6 1316.8,283.6 1294.0,244.2 1316.8,204.8 1362.2,204.8" fill="#58a97c" stroke="#3e7657" stroke-width="1.2" opacity="0.92"/><polygon points="1385.0,325.6 1362.2,365.0 1316.8,365.0 1294.0,325.6 1316.8,286.2 1362.2,286.2" fill="#54b27f" stroke="#3b7d59" stroke-width="1.2" opacity="0.92"/><polygon points="1385.0,407.0 1362.2,446.4 1316.8,446.4 1294.0,407.0 1316.8,367.6 1362.2,367.6" fill="#64de9c" stroke="#469b6d" stroke-width="1.2" opacity="0.92"/><polygon points="1385.0,488.4 1362.2,527.8 1316.8,527.8 1294.0,488.4 1316.8,449.0 1362.2,449.0" fill="#5dcc91" stroke="#418f66" stroke-width="1.2" opacity="0.92"/><polygon points="1385.0,569.8 1362.2,609.2 1316.8,609.2 1294.0,569.8 1316.8,530.4 1362.2,530.4" fill="#5fd194" stroke="#429268" stroke-width="1.2" opacity="0.92"/><polygon points="1385.0,651.3 1362.2,690.7 1316.8,690.7 1294.0,651.3 1316.8,611.8 1362.2,611.8" fill="#63da9a" stroke="#45996c" stroke-width="1.2" opacity="0.92"/><polygon points="1385.0,732.7 1362.2,772.1 1316.8,772.1 1294.0,732.7 1316.8,693.3 1362.2,693.3" fill="#5fd395" stroke="#429468" stroke-width="1.2" opacity="0.92"/><polygon points="1385.0,814.1 1362.2,853.5 1316.8,853.5 1294.0,814.1 1316.8,774.7 1362.2,774.7" fill="#56ba84" stroke="#3c825c" stroke-width="1.2" opacity="0.92"/><polygon points="1385.0,895.5 1362.2,934.9 1316.8,934.9 1294.0,895.5 1316.8,856.1 1362.2,856.1" fill="#60ca90" stroke="#438d65" stroke-width="1.2" opacity="0.92"/><polygon points="1385.0,976.9 1362.2,1016.3 1316.8,1016.3 1294.0,976.9 1316.8,937.5 1362.2,937.5" fill="#60c48e" stroke="#438963" stroke-width="1.2" opacity="0.92"/><polygon points="1455.5,-40.7 1432.8,-1.3 1387.2,-1.3 1364.5,-40.7 1387.2,-80.1 1432.8,-80.1" fill="#519e73" stroke="#396f50" stroke-width="1.2" opacity="0.92"/><polygon points="1455.5,40.7 1432.8,80.1 1387.2,80.1 1364.5,40.7 1387.2,1.3 1432.8,1.3" fill="#509f73" stroke="#386f50" stroke-width="1.2" opacity="0.92"/><polygon points="1455.5,122.1 1432.8,161.5 1387.2,161.5 1364.5,122.1 1387.2,82.7 1432.8,82.7" fill="#5ebd89" stroke="#428460" stroke-width="1.2" opacity="0.92"/><polygon points="1455.5,203.5 1432.8,242.9 1387.2,242.9 1364.5,203.5 1387.2,164.1 1432.8,164.1" fill="#62cf94" stroke="#459168" stroke-width="1.2" opacity="0.92"/><polygon points="1455.5,284.9 1432.8,324.3 1387.2,324.3 1364.5,284.9 1387.2,245.5 1432.8,245.5" fill="#66dd9d" stroke="#479b6e" stroke-width="1.2" opacity="0.92"/><polygon points="1455.5,366.3 1432.8,405.7 1387.2,405.7 1364.5,366.3 1387.2,326.9 1432.8,326.9" fill="#62d899" stroke="#45976b" stroke-width="1.2" opacity="0.92"/><polygon points="1455.5,447.7 1432.8,487.1 1387.2,487.1 1364.5,447.7 1387.2,408.3 1432.8,408.3" fill="#57c189" stroke="#3d8760" stroke-width="1.2" opacity="0.92"/><polygon points="1455.5,529.1 1432.8,568.5 1387.2,568.5 1364.5,529.1 1387.2,489.7 1432.8,489.7" fill="#60d496" stroke="#439469" stroke-width="1.2" opacity="0.92"/><polygon points="1455.5,610.5 1432.8,650.0 1387.2,650.0 1364.5,610.5 1387.2,571.1 1432.8,571.1" fill="#64dd9c" stroke="#469b6d" stroke-width="1.2" opacity="0.92"/><polygon points="1455.5,692.0 1432.8,731.4 1387.2,731.4 1364.5,692.0 1387.2,652.6 1432.8,652.6" fill="#57c189" stroke="#3d8760" stroke-width="1.2" opacity="0.92"/><polygon points="1455.5,773.4 1432.8,812.8 1387.2,812.8 1364.5,773.4 1387.2,734.0 1432.8,734.0" fill="#59c58b" stroke="#3e8a61" stroke-width="1.2" opacity="0.92"/><polygon points="1455.5,854.8 1432.8,894.2 1387.2,894.2 1364.5,854.8 1387.2,815.4 1432.8,815.4" fill="#5abd88" stroke="#3f845f" stroke-width="1.2" opacity="0.92"/><polygon points="1455.5,936.2 1432.8,975.6 1387.2,975.6 1364.5,936.2 1387.2,896.8 1432.8,896.8" fill="#5ebe89" stroke="#428560" stroke-width="1.2" opacity="0.92"/><polygon points="1526.0,-81.4 1503.2,-42.0 1457.8,-42.0 1435.0,-81.4 1457.8,-120.8 1503.2,-120.8" fill="#56b380" stroke="#3c7d5a" stroke-width="1.2" opacity="0.92"/><polygon points="1526.0,0.0 1503.2,39.4 1457.8,39.4 1435.0,0.0 1457.8,-39.4 1503.2,-39.4" fill="#55ae7e" stroke="#3b7a58" stroke-width="1.2" opacity="0.92"/><polygon points="1526.0,81.4 1503.2,120.8 1457.8,120.8 1435.0,81.4 1457.8,42.0 1503.2,42.0" fill="#58b783" stroke="#3e805c" stroke-width="1.2" opacity="0.92"/><polygon points="1526.0,162.8 1503.2,202.2 1457.8,202.2 1435.0,162.8 1457.8,123.4 1503.2,123.4" fill="#54b07e" stroke="#3b7b58" stroke-width="1.2" opacity="0.92"/><polygon points="1526.0,244.2 1503.2,283.6 1457.8,283.6 1435.0,244.2 1457.8,204.8 1503.2,204.8" fill="#67e19f" stroke="#489e6f" stroke-width="1.2" opacity="0.92"/><polygon points="1526.0,325.6 1503.2,365.0 1457.8,365.0 1435.0,325.6 1457.8,286.2 1503.2,286.2" fill="#5bc98e" stroke="#408d63" stroke-width="1.2" opacity="0.92"/><polygon points="1526.0,407.0 1503.2,446.4 1457.8,446.4 1435.0,407.0 1457.8,367.6 1503.2,367.6" fill="#6beda8" stroke="#4ba676" stroke-width="1.2" opacity="0.92"/><polygon points="1526.0,488.4 1503.2,527.8 1457.8,527.8 1435.0,488.4 1457.8,449.0 1503.2,449.0" fill="#59c58c" stroke="#3e8a62" stroke-width="1.2" opacity="0.92"/><polygon points="1526.0,569.8 1503.2,609.2 1457.8,609.2 1435.0,569.8 1457.8,530.4 1503.2,530.4" fill="#58c38a" stroke="#3e8861" stroke-width="1.2" opacity="0.92"/><polygon points="1526.0,651.3 1503.2,690.7 1457.8,690.7 1435.0,651.3 1457.8,611.8 1503.2,611.8" fill="#58c38a" stroke="#3e8861" stroke-width="1.2" opacity="0.92"/><polygon points="1526.0,732.7 1503.2,772.1 1457.8,772.1 1435.0,732.7 1457.8,693.3 1503.2,693.3" fill="#5ac28a" stroke="#3f8861" stroke-width="1.2" opacity="0.92"/><polygon points="1526.0,814.1 1503.2,853.5 1457.8,853.5 1435.0,814.1 1457.8,774.7 1503.2,774.7" fill="#65d899" stroke="#47976b" stroke-width="1.2" opacity="0.92"/><polygon points="1526.0,895.5 1503.2,934.9 1457.8,934.9 1435.0,895.5 1457.8,856.1 1503.2,856.1" fill="#5abd88" stroke="#3f845f" stroke-width="1.2" opacity="0.92"/><polygon points="1526.0,976.9 1503.2,1016.3 1457.8,1016.3 1435.0,976.9 1457.8,937.5 1503.2,937.5" fill="#59b783" stroke="#3e805c" stroke-width="1.2" opacity="0.92"/><polygon points="1596.5,-40.7 1573.8,-1.3 1528.2,-1.3 1505.5,-40.7 1528.2,-80.1 1573.8,-80.1" fill="#57b281" stroke="#3d7d5a" stroke-width="1.2" opacity="0.92"/><polygon points="1596.5,40.7 1573.8,80.1 1528.2,80.1 1505.5,40.7 1528.2,1.3 1573.8,1.3" fill="#56b280" stroke="#3c7d5a" stroke-width="1.2" opacity="0.92"/><polygon points="1596.5,122.1 1573.8,161.5 1528.2,161.5 1505.5,122.1 1528.2,82.7 1573.8,82.7" fill="#59c58b" stroke="#3e8a61" stroke-width="1.2" opacity="0.92"/><polygon points="1596.5,203.5 1573.8,242.9 1528.2,242.9 1505.5,203.5 1528.2,164.1 1573.8,164.1" fill="#64dc9c" stroke="#469a6d" stroke-width="1.2" opacity="0.92"/><polygon points="1596.5,284.9 1573.8,324.3 1528.2,324.3 1505.5,284.9 1528.2,245.5 1573.8,245.5" fill="#5bc98e" stroke="#408d63" stroke-width="1.2" opacity="0.92"/><polygon points="1596.5,366.3 1573.8,405.7 1528.2,405.7 1505.5,366.3 1528.2,326.9 1573.8,326.9" fill="#5cca8f" stroke="#408d64" stroke-width="1.2" opacity="0.92"/><polygon points="1596.5,447.7 1573.8,487.1 1528.2,487.1 1505.5,447.7 1528.2,408.3 1573.8,408.3" fill="#60d496" stroke="#439469" stroke-width="1.2" opacity="0.92"/><polygon points="1596.5,529.1 1573.8,568.5 1528.2,568.5 1505.5,529.1 1528.2,489.7 1573.8,489.7" fill="#68e6a3" stroke="#49a172" stroke-width="1.2" opacity="0.92"/><polygon points="1596.5,610.5 1573.8,650.0 1528.2,650.0 1505.5,610.5 1528.2,571.1 1573.8,571.1" fill="#57c088" stroke="#3d865f" stroke-width="1.2" opacity="0.92"/><polygon points="1596.5,692.0 1573.8,731.4 1528.2,731.4 1505.5,692.0 1528.2,652.6 1573.8,652.6" fill="#62d195" stroke="#459268" stroke-width="1.2" opacity="0.92"/><polygon points="1596.5,773.4 1573.8,812.8 1528.2,812.8 1505.5,773.4 1528.2,734.0 1573.8,734.0" fill="#5ece93" stroke="#429067" stroke-width="1.2" opacity="0.92"/><polygon points="1596.5,854.8 1573.8,894.2 1528.2,894.2 1505.5,854.8 1528.2,815.4 1573.8,815.4" fill="#52ac7a" stroke="#397855" stroke-width="1.2" opacity="0.92"/><polygon points="1596.5,936.2 1573.8,975.6 1528.2,975.6 1505.5,936.2 1528.2,896.8 1573.8,896.8" fill="#62cc93" stroke="#458f67" stroke-width="1.2" opacity="0.92"/><polygon points="1667.0,-81.4 1644.2,-42.0 1598.8,-42.0 1576.0,-81.4 1598.8,-120.8 1644.2,-120.8" fill="#66de9e" stroke="#479b6f" stroke-width="1.2" opacity="0.92"/><polygon points="1667.0,0.0 1644.2,39.4 1598.8,39.4 1576.0,0.0 1598.8,-39.4 1644.2,-39.4" fill="#5cca8f" stroke="#408d64" stroke-width="1.2" opacity="0.92"/><polygon points="1667.0,81.4 1644.2,120.8 1598.8,120.8 1576.0,81.4 1598.8,42.0 1644.2,42.0" fill="#5ac68c" stroke="#3f8b62" stroke-width="1.2" opacity="0.92"/><polygon points="1667.0,162.8 1644.2,202.2 1598.8,202.2 1576.0,162.8 1598.8,123.4 1644.2,123.4" fill="#65df9e" stroke="#479c6f" stroke-width="1.2" opacity="0.92"/><polygon points="1667.0,244.2 1644.2,283.6 1598.8,283.6 1576.0,244.2 1598.8,204.8 1644.2,204.8" fill="#66e09f" stroke="#479d6f" stroke-width="1.2" opacity="0.92"/><polygon points="1667.0,325.6 1644.2,365.0 1598.8,365.0 1576.0,325.6 1598.8,286.2 1644.2,286.2" fill="#67e2a0" stroke="#489e70" stroke-width="1.2" opacity="0.92"/><polygon points="1667.0,407.0 1644.2,446.4 1598.8,446.4 1576.0,407.0 1598.8,367.6 1644.2,367.6" fill="#62d999" stroke="#45986b" stroke-width="1.2" opacity="0.92"/><polygon points="1667.0,488.4 1644.2,527.8 1598.8,527.8 1576.0,488.4 1598.8,449.0 1644.2,449.0" fill="#67e3a1" stroke="#489f71" stroke-width="1.2" opacity="0.92"/><polygon points="1667.0,569.8 1644.2,609.2 1598.8,609.2 1576.0,569.8 1598.8,530.4 1644.2,530.4" fill="#6aeaa5" stroke="#4aa473" stroke-width="1.2" opacity="0.92"/><polygon points="1667.0,651.3 1644.2,690.7 1598.8,690.7 1576.0,651.3 1598.8,611.8 1644.2,611.8" fill="#5dcd91" stroke="#419066" stroke-width="1.2" opacity="0.92"/><polygon points="1667.0,732.7 1644.2,772.1 1598.8,772.1 1576.0,732.7 1598.8,693.3 1644.2,693.3" fill="#56b582" stroke="#3c7f5b" stroke-width="1.2" opacity="0.92"/><polygon points="1667.0,814.1 1644.2,853.5 1598.8,853.5 1576.0,814.1 1598.8,774.7 1644.2,774.7" fill="#61cf94" stroke="#449168" stroke-width="1.2" opacity="0.92"/><polygon points="1667.0,895.5 1644.2,934.9 1598.8,934.9 1576.0,895.5 1598.8,856.1 1644.2,856.1" fill="#51a97a" stroke="#397655" stroke-width="1.2" opacity="0.92"/><polygon points="1667.0,976.9 1644.2,1016.3 1598.8,1016.3 1576.0,976.9 1598.8,937.5 1644.2,937.5" fill="#60cf93" stroke="#439167" stroke-width="1.2" opacity="0.92"/>
  </g>
</svg>
